<svg width="512" height="512" viewBox="0 0 512 512" fill="none" xmlns="http://www.w3.org/2000/svg">
<path d="M441.405 310.354C440.468 311.268 439.78 312.406 439.406 313.66C439.033 314.915 438.986 316.244 439.27 317.522C439.373 317.952 449.075 363.52 428.252 390.656C423.634 396.354 417.903 401.051 411.409 404.462C404.915 407.872 397.795 409.923 390.482 410.491C388.809 396.175 382.449 382.815 372.393 372.49C380.202 361.842 384.062 348.809 383.314 335.626C383.132 333.612 382.178 331.748 380.65 330.423C379.122 329.099 377.141 328.418 375.122 328.525C374.116 328.597 373.133 328.868 372.232 329.32C371.33 329.772 370.526 330.398 369.866 331.161C369.206 331.924 368.703 332.81 368.385 333.767C368.068 334.725 367.942 335.736 368.015 336.742C369.858 362.05 344.975 385.771 318.525 383.821C316.505 383.694 314.517 384.369 312.993 385.701C311.468 387.032 310.531 388.911 310.384 390.93C310.238 392.949 310.894 394.943 312.211 396.481C313.527 398.018 315.397 398.974 317.414 399.14C333.706 400.133 349.726 394.621 361.958 383.815C367.614 389.674 371.754 396.824 374.02 404.646C376.285 412.467 376.607 420.724 374.958 428.698C373.309 436.672 369.738 444.124 364.556 450.405C359.374 456.686 352.738 461.608 345.222 464.742C337.706 467.877 329.539 469.13 321.43 468.392C313.32 467.655 305.513 464.949 298.687 460.51C291.86 456.07 286.22 450.032 282.257 442.919C278.293 435.805 276.126 427.832 275.942 419.691V343.193C276.394 340.375 277.525 337.71 279.238 335.427C280.95 333.144 283.193 331.313 285.773 330.091C293.33 326.036 308.567 329.446 312.079 335.979C313.098 337.667 314.728 338.898 316.629 339.418C318.531 339.938 320.56 339.706 322.296 338.771C324.032 337.836 325.341 336.269 325.954 334.395C326.566 332.521 326.434 330.483 325.586 328.704C317.855 314.368 291.86 307.712 275.922 318.131V280.489C297.272 284.692 319.422 281.089 338.34 270.336C362.875 287.744 394.327 288.45 416.502 264.151C417.817 262.638 418.488 260.671 418.373 258.67C418.257 256.668 417.364 254.791 415.884 253.44C414.403 252.088 412.453 251.369 410.449 251.436C408.446 251.503 406.548 252.351 405.161 253.798C385.137 275.727 361.559 266.281 350.935 260.127C354.897 255.959 358.305 251.297 361.073 246.256C361.966 244.484 362.138 242.435 361.553 240.538C360.968 238.642 359.672 237.045 357.936 236.083C356.201 235.121 354.16 234.869 352.242 235.378C350.324 235.888 348.677 237.12 347.648 238.817C328.868 272.778 287.554 267.192 275.932 264.847V184.545C287.913 193.044 306.688 204.39 321.705 204.39C323.742 204.39 325.695 203.581 327.135 202.141C328.576 200.7 329.385 198.747 329.385 196.71C329.385 194.673 328.576 192.72 327.135 191.28C325.695 189.839 323.742 189.03 321.705 189.03C308.188 189.03 285.706 173.184 275.932 165.304V94.7198C275.899 81.2471 281.212 68.3115 290.705 58.7513C300.199 49.1911 313.096 43.7869 326.569 43.7246C345.769 43.7246 370.98 58.5317 370.396 75.8731C361.107 78.8257 352.612 83.8555 345.557 90.5809C338.501 97.3063 333.071 105.55 329.677 114.688C323.627 114.267 317.549 114.768 311.649 116.173C309.688 116.666 308.001 117.913 306.954 119.643C305.907 121.373 305.584 123.446 306.056 125.412C306.528 127.379 307.756 129.079 309.474 130.146C311.193 131.212 313.262 131.558 315.233 131.108C325.33 128.626 335.98 129.813 345.283 134.456C354.586 139.099 361.937 146.896 366.024 156.457C366.823 158.331 368.335 159.81 370.225 160.57C372.116 161.329 374.231 161.306 376.105 160.507C377.979 159.707 379.458 158.195 380.218 156.305C380.977 154.414 380.955 152.299 380.155 150.425C376.915 142.825 372.113 135.991 366.06 130.367C360.007 124.742 352.839 120.454 345.021 117.78C350.246 105.914 359.945 96.5908 372.008 91.838C384.07 87.0851 397.522 87.2872 409.437 92.4004C421.351 97.5135 430.765 107.124 435.631 119.142C440.497 131.16 440.421 144.612 435.42 156.575C431.96 153.867 428.335 151.378 424.566 149.12C422.781 148.137 420.68 147.904 418.724 148.471C416.767 149.038 415.116 150.359 414.134 152.143C413.151 153.927 412.918 156.029 413.485 157.985C414.052 159.942 415.373 161.593 417.157 162.575C445.527 178.207 470.144 215.695 471.004 246.978C471.624 269.266 461.665 290.591 441.405 310.354ZM236.083 343.193C235.632 340.375 234.501 337.71 232.788 335.427C231.075 333.144 228.832 331.313 226.253 330.091C218.701 326.026 203.458 329.446 199.946 335.979C199.468 336.868 198.82 337.654 198.039 338.292C197.258 338.93 196.358 339.408 195.392 339.698C194.426 339.989 193.412 340.086 192.409 339.985C191.405 339.883 190.431 339.585 189.542 339.108C188.654 338.63 187.868 337.982 187.23 337.201C186.592 336.419 186.114 335.52 185.823 334.554C185.533 333.588 185.436 332.574 185.537 331.57C185.638 330.566 185.936 329.592 186.414 328.704C194.176 314.276 220.278 307.809 236.078 318.131V280.484C214.725 284.693 192.57 281.092 173.65 270.336C149.156 287.641 117.786 288.578 95.4982 264.156C94.183 262.643 93.5114 260.676 93.6269 258.675C93.7424 256.673 94.6358 254.797 96.1163 253.445C97.5968 252.094 99.5471 251.375 101.551 251.441C103.554 251.508 105.452 252.356 106.839 253.803C126.807 275.686 150.333 266.332 161.055 260.121C157.098 255.959 153.694 251.304 150.927 246.272C149.996 244.496 149.797 242.427 150.371 240.506C150.945 238.585 152.248 236.965 154.001 235.991C155.753 235.018 157.817 234.769 159.752 235.297C161.686 235.825 163.337 237.088 164.352 238.817C182.953 272.44 224.486 267.069 236.068 264.816V184.55C224.133 193.019 205.348 204.39 190.295 204.39C188.258 204.39 186.305 203.581 184.864 202.141C183.424 200.7 182.615 198.747 182.615 196.71C182.615 194.673 183.424 192.72 184.864 191.28C186.305 189.839 188.258 189.03 190.295 189.03C203.868 189.03 226.478 173.051 236.068 165.314V94.7198C236.1 81.2471 230.787 68.3115 221.294 58.7513C211.801 49.1911 198.904 43.7869 185.431 43.7246C166.016 43.7246 141.03 58.7928 141.604 75.868C150.893 78.8214 159.388 83.8521 166.444 90.5784C173.499 97.3047 178.93 105.55 182.323 114.688C188.373 114.267 194.451 114.768 200.351 116.173C202.312 116.666 203.999 117.913 205.046 119.643C206.093 121.373 206.416 123.446 205.944 125.412C205.472 127.379 204.244 129.079 202.525 130.146C200.807 131.212 198.738 131.558 196.767 131.108C186.67 128.626 176.02 129.813 166.717 134.456C157.414 139.099 150.063 146.896 145.976 156.457C145.176 158.331 143.665 159.81 141.774 160.57C139.884 161.329 137.769 161.307 135.895 160.507C134.021 159.707 132.542 158.195 131.782 156.305C131.023 154.414 131.045 152.299 131.845 150.425C135.086 142.825 139.889 135.992 145.943 130.368C151.997 124.745 159.165 120.458 166.984 117.785C161.79 105.872 152.093 96.4983 140.011 91.7116C127.928 86.925 114.442 87.1146 102.499 92.239C90.5559 97.3634 81.1261 107.006 76.2696 119.061C71.4131 131.115 71.5246 144.602 76.5798 156.575C80.0387 153.865 83.664 151.376 87.4342 149.12C89.2185 148.137 91.32 147.904 93.2763 148.471C95.2327 149.038 96.8837 150.359 97.8662 152.143C98.8486 153.927 99.082 156.029 98.515 157.985C97.948 159.942 96.6271 161.593 94.8428 162.575C66.9593 177.935 41.8713 215.142 40.9958 246.978C40.3814 269.261 50.3398 290.585 70.5996 310.349C71.5369 311.262 72.225 312.401 72.5987 313.655C72.9723 314.91 73.0191 316.239 72.7347 317.517C72.6271 317.952 62.9247 363.52 83.7478 390.656C88.3662 396.354 94.0971 401.051 100.591 404.462C107.085 407.872 114.205 409.923 121.518 410.491C123.187 396.173 129.549 382.811 139.612 372.49C131.798 361.845 127.935 348.81 128.686 335.626C128.87 333.613 129.825 331.75 131.352 330.426C132.88 329.102 134.86 328.421 136.878 328.525C137.884 328.597 138.866 328.868 139.768 329.32C140.67 329.772 141.474 330.398 142.134 331.161C142.794 331.924 143.297 332.81 143.615 333.767C143.932 334.725 144.058 335.736 143.985 336.742C142.126 362.214 167.117 385.766 193.474 383.821C195.494 383.694 197.483 384.369 199.007 385.701C200.532 387.032 201.469 388.911 201.616 390.93C201.762 392.949 201.106 394.943 199.789 396.481C198.473 398.018 196.603 398.974 194.586 399.14C179.741 400.055 165.067 395.568 153.272 386.509C149.402 383.559 150.385 383.437 149.478 384.415C142.181 392.367 137.656 402.468 136.581 413.207C135.506 423.946 137.938 434.745 143.514 443.986C168.827 486.103 234.68 470.456 236.068 419.487C236.088 418.621 236.083 344.438 236.083 343.193Z" fill="url(#paint0_linear_2098_5142)"/>
<defs>
<linearGradient id="paint0_linear_2098_5142" x1="98.5087" y1="405.995" x2="413.491" y2="91.0181" gradientUnits="userSpaceOnUse">
<stop stop-color="#001836"/>
<stop offset="1" stop-color="#02A2F8"/>
</linearGradient>
</defs>
</svg>
