<svg width="440" height="440" viewBox="0 0 440 440" fill="none" xmlns="http://www.w3.org/2000/svg">
<path d="M276.344 338.707C274.51 335.56 271.646 333.145 268.238 331.871C264.83 330.597 261.086 330.542 257.642 331.717C233.445 339.737 207.312 339.737 183.114 331.717C179.66 330.538 175.906 330.589 172.486 331.863C169.066 333.137 166.189 335.554 164.343 338.707L128.684 400.643C127.536 402.599 126.822 404.781 126.591 407.039C126.36 409.297 126.618 411.578 127.346 413.727C128.074 415.877 129.257 417.843 130.812 419.494C132.368 421.144 134.26 422.44 136.36 423.292C190.165 445.569 250.592 445.569 304.397 423.292C306.482 422.421 308.358 421.116 309.9 419.463C311.443 417.81 312.616 415.846 313.342 413.704C314.068 411.561 314.33 409.288 314.112 407.036C313.893 404.784 313.198 402.605 312.073 400.643L276.344 338.707Z" fill="#00B3DA"/>
<path d="M422.739 134.586C411.724 108.436 395.72 84.683 375.622 64.6567C368.852 57.8646 361.635 51.5335 354.02 45.7059C352.225 44.3247 350.155 43.3423 347.95 42.824C345.745 42.3058 343.455 42.2636 341.233 42.7003C339.01 43.1371 336.906 44.0426 335.061 45.3567C333.216 46.6708 331.672 48.3632 330.532 50.3212L294.809 112.279C292.969 115.451 292.284 119.163 292.87 122.783C293.456 126.404 295.278 129.71 298.025 132.139C299.842 133.817 301.66 135.495 303.268 137.104C325.24 159.151 337.578 189.013 337.578 220.145C337.578 251.277 325.24 281.138 303.268 303.186C301.66 304.794 299.842 306.473 298.025 308.081C295.278 310.509 293.451 313.809 292.853 317.427C292.254 321.044 292.92 324.758 294.739 327.941L330.532 389.899C331.685 391.845 333.232 393.529 335.074 394.841C336.916 396.154 339.012 397.067 341.227 397.521C342.25 397.625 343.281 397.625 344.303 397.521C347.818 397.537 351.237 396.38 354.02 394.234C361.6 388.59 368.815 382.47 375.622 375.913C406.529 344.964 427.518 305.506 435.91 262.574C444.302 219.641 439.717 175.18 422.739 134.866" fill="#067DBA"/>
<path d="M313.235 26.2607C312.494 24.1756 311.321 22.2704 309.792 20.67C308.264 19.0696 306.414 17.8101 304.364 16.9739C257.359 -2.65788 204.99 -5.34865 156.219 9.36213C107.448 24.0729 65.308 55.2707 37.0102 97.6162C8.71229 139.962 -3.98382 190.822 1.09468 241.494C6.17317 292.165 28.7105 339.497 64.8497 375.389C71.6536 382.154 78.8864 388.475 86.5031 394.311C89.2653 396.44 92.6548 397.594 96.1423 397.593C98.9679 397.669 101.761 396.974 104.222 395.584C106.683 394.194 108.719 392.161 110.112 389.703L145.875 327.768C147.701 324.596 148.378 320.893 147.793 317.282C147.208 313.67 145.396 310.37 142.662 307.937C140.776 306.261 139.1 304.655 137.424 303.049C118.696 284.369 106.827 259.914 103.742 233.648C100.657 207.382 106.536 180.843 120.425 158.335C134.315 135.826 155.402 118.666 180.268 109.636C205.134 100.607 232.322 100.236 257.425 108.585C260.884 109.749 264.637 109.691 268.057 108.42C271.477 107.149 274.357 104.742 276.215 101.603L311.978 39.7371C313.17 37.7229 313.901 35.4698 314.118 33.1398C314.335 30.8098 314.034 28.4605 313.235 26.2607Z" fill="#1C5297"/>
</svg>
